<svg xmlns="http://www.w3.org/2000/svg" viewBox="0 0 691.96 160.76"><defs><style>.cls-1{font-size:46.29px;font-family:Montserrat-Bold, Montserrat;font-weight:700;letter-spacing:0.04em;}.cls-1,.cls-4{fill:#fff;}.cls-2{letter-spacing:0.05em;}.cls-3{letter-spacing:0.04em;}.cls-4{font-size:26.49px;font-family:Montserrat-Regular, Montserrat;letter-spacing:0.2em;}.cls-5{letter-spacing:0.19em;}.cls-6{letter-spacing:0.18em;}.cls-7{letter-spacing:0.15em;}.cls-8{letter-spacing:0.18em;}.cls-9{letter-spacing:0.2em;}.cls-10{letter-spacing:0.19em;}.cls-11{letter-spacing:0.2em;}.cls-12{fill:#252f87;}.cls-13{fill:#192342;}</style></defs><g id="objects"><text class="cls-1" transform="translate(116.31 77.96)">W<tspan class="cls-2" x="55.46" y="0">ENDELL </tspan><tspan class="cls-3" x="278.45" y="0">C</tspan><tspan class="cls-2" x="314.42" y="0">UNHA</tspan></text><text class="cls-4" transform="translate(171.11 122.66)">DESE<tspan class="cls-5" x="94.8" y="0">N</tspan><tspan class="cls-6" x="121.42" y="0">V</tspan><tspan x="144.65" y="0">O</tspan><tspan class="cls-7" x="172.17" y="0">L</tspan><tspan class="cls-8" x="191.66" y="0">V</tspan><tspan class="cls-9" x="215.05" y="0">ER </tspan><tspan class="cls-10" x="274.75" y="0">W</tspan><tspan class="cls-11" x="309.08" y="0">EB</tspan></text><path class="cls-12" d="M114.32,324.53a19.93,19.93,0,0,0,28.21,0h0a20,20,0,0,0,0-28.21L82.12,235.91a20,20,0,0,0-28.21,0h0a20,20,0,0,0,0,28.22l35.73,35.64Z" transform="translate(-47.9 -169.62)"/><path class="cls-13" d="M142.53,175.47a19.94,19.94,0,0,0-28.21,0L53.91,235.88c-7.63,7.62-8.11,19.56-.8,27.38l.31.33.4.4.09.1.1.09,35.63,35.59C70.45,280.58,96.22,250,96.22,250h0l46.32-46.32A20,20,0,0,0,142.53,175.47Z" transform="translate(-47.9 -169.62)"/><path class="cls-13" d="M673.44,175.47a19.93,19.93,0,0,0-28.21,0h0a20,20,0,0,0,0,28.21l60.41,60.41a20,20,0,0,0,28.21,0h0a20,20,0,0,0,0-28.21l-35.74-35.65Z" transform="translate(-47.9 -169.62)"/><path class="cls-12" d="M645.23,324.54a20,20,0,0,0,28.21,0l60.41-60.41c7.63-7.63,8.11-19.57.8-27.39l-.31-.33-.41-.4-.08-.1-.1-.09-35.64-35.59c19.19,19.19-6.57,49.78-6.57,49.78h0l-46.32,46.32A20,20,0,0,0,645.23,324.54Z" transform="translate(-47.9 -169.62)"/></g></svg>